<?xml version="1.0" encoding="utf-8"?>
<!-- Generator: Adobe Illustrator 24.0.0, SVG Export Plug-In . SVG Version: 6.00 Build 0)  -->
<svg version="1.1" id="Layer_1" xmlns="http://www.w3.org/2000/svg" xmlns:xlink="http://www.w3.org/1999/xlink" x="0px" y="0px"
	 viewBox="0 0 1600 300" style="enable-background:new 0 0 1600 300;" xml:space="preserve">
<style type="text/css">
	.st0{fill:#FFFFFF;}
</style>
<path class="st0" d="M0,158.6v5.7c26.6,10.6,581.7,224.3,1600-2.2v-5.7C581.7,382.9,26.6,169.2,0,158.6z"/>
<path class="st0" d="M0,157.6v5.7c26.6,10.6,581.7,224.3,1600-2.2v-5.7C581.7,381.9,26.6,168.2,0,157.6z"/>
<path class="st0" d="M0,156.6v5.7c26.6,10.6,581.7,224.3,1600-2.2v-5.7C581.7,380.9,26.6,167.2,0,156.6z"/>
<path class="st0" d="M0,155.6v5.7c26.6,10.6,581.7,224.3,1600-2.2v-5.7C581.7,379.9,26.6,166.2,0,155.6z"/>
<g>
	<path class="st0" d="M0,159.3V300h1600V157.1C581.7,383.5,26.6,169.9,0,159.3z"/>
	<path class="st0" d="M0,150.4v3.2c26.6,10.6,581.7,224.3,1600-2.2v-3.2C581.7,374.7,26.6,161,0,150.4z"/>
</g>
</svg>
